<?xml version="1.0" encoding="iso-8859-1"?>
<!-- Generator: Adobe Illustrator 19.0.0, SVG Export Plug-In . SVG Version: 6.00 Build 0)  -->
<svg xmlns="http://www.w3.org/2000/svg" xmlns:xlink="http://www.w3.org/1999/xlink" version="1.1" id="Capa_1" x="0px" y="0px" viewBox="0 0 508.2 508.2" style="enable-background:new 0 0 508.2 508.2;" xml:space="preserve" width="512px" height="512px">
<g>
	<g>
		<path d="M81.9,250.8V41.1c0-13.6,11-24.6,24.6-24.6h24.6c13.6,0,24.6,11,24.6,24.6v16.4c-22.6,0-41,18.4-41,41v8.2H213v-8.2    c0-22.6-18.4-41-41-41V41.1c0-22.6-18.4-41-41-41h-24.6c-22.6,0-41,18.4-41,41v208.6L0,245.3v189c0,31.6,25.7,57.4,57.4,57.4H82    v16.4h16.4v-16.4h311.4v16.4h16.4v-16.4h24.6c31.6,0,57.4-25.7,57.4-57.4V279.2L81.9,250.8z M172.1,73.8    c10.6,0,19.8,6.9,23.1,16.4h-62.7c3.4-9.5,12.5-16.4,23.2-16.4H172.1z M491.6,434.3c0,22.6-18.4,41-41,41H57.4    c-22.6,0-41-18.4-41-41V336h475.2V434.3z M491.6,319.6H16.4v-56.8l475.2,31.7V319.6z" fill="#fe0002"/>
	</g>
</g>
<g>
	<g>
		<rect x="245.8" y="426.2" width="16.4" height="16.4" fill="#fe0002"/>
	</g>
</g>
<g>
	<g>
		<rect x="278.6" y="426.2" width="16.4" height="16.4" fill="#fe0002"/>
	</g>
</g>
<g>
	<g>
		<rect x="213" y="426.2" width="16.4" height="16.4" fill="#fe0002"/>
	</g>
</g>
<g>
	<g>
		<rect x="122.9" y="123" width="16.4" height="16.4" fill="#fe0002"/>
	</g>
</g>
<g>
	<g>
		<rect x="155.7" y="123" width="16.4" height="16.4" fill="#fe0002"/>
	</g>
</g>
<g>
	<g>
		<rect x="188.5" y="123" width="16.4" height="16.4" fill="#fe0002"/>
	</g>
</g>
<g>
	<g>
		<rect x="139.3" y="155.8" width="16.4" height="16.4" fill="#fe0002"/>
	</g>
</g>
<g>
	<g>
		<rect x="172.1" y="155.8" width="16.4" height="16.4" fill="#fe0002"/>
	</g>
</g>
<g>
</g>
<g>
</g>
<g>
</g>
<g>
</g>
<g>
</g>
<g>
</g>
<g>
</g>
<g>
</g>
<g>
</g>
<g>
</g>
<g>
</g>
<g>
</g>
<g>
</g>
<g>
</g>
<g>
</g>
</svg>
