<?xml version="1.0" encoding="iso-8859-1"?>
<!-- Generator: Adobe Illustrator 19.0.0, SVG Export Plug-In . SVG Version: 6.00 Build 0)  -->
<svg xmlns="http://www.w3.org/2000/svg" xmlns:xlink="http://www.w3.org/1999/xlink" version="1.1" id="Layer_1" x="0px" y="0px" viewBox="0 0 503.607 503.607" style="enable-background:new 0 0 503.607 503.607;" xml:space="preserve" width="512px" height="512px">
<g transform="translate(1 1)">
	<g>
		<g>
			<path d="M502.325,275.984c-4.375-67.815-61.12-125.902-125.62-125.902H225.623v125.902H74.541V57.754H-1v386.098h75.541v-92.328     h352.525v92.328h75.541V292.77v-8.393v-8.393H502.325z M242.41,166.869h134.295c55.397,0,104.918,50.361,109.115,109.115H242.41     V166.869z M485.82,427.066h-41.967v-92.328H57.754v92.328H15.787V74.541h41.967V292.77h167.869H485.82V427.066z" fill="#fe0002"/>
			<path d="M150.082,259.197c32.734,0,58.754-26.02,58.754-58.754s-26.02-58.754-58.754-58.754s-58.754,26.02-58.754,58.754     S117.348,259.197,150.082,259.197z M150.082,158.475c23.502,0,41.967,18.466,41.967,41.967s-18.466,41.967-41.967,41.967     s-41.967-18.466-41.967-41.967S126.58,158.475,150.082,158.475z" fill="#fe0002"/>
		</g>
	</g>
</g>
<g>
</g>
<g>
</g>
<g>
</g>
<g>
</g>
<g>
</g>
<g>
</g>
<g>
</g>
<g>
</g>
<g>
</g>
<g>
</g>
<g>
</g>
<g>
</g>
<g>
</g>
<g>
</g>
<g>
</g>
</svg>
