<?xml version="1.0" encoding="iso-8859-1"?>
<!-- Generator: Adobe Illustrator 19.0.0, SVG Export Plug-In . SVG Version: 6.00 Build 0)  -->
<svg xmlns="http://www.w3.org/2000/svg" xmlns:xlink="http://www.w3.org/1999/xlink" version="1.1" id="Capa_1" x="0px" y="0px" viewBox="0 0 508 508" style="enable-background:new 0 0 508 508;" xml:space="preserve" width="512px" height="512px">
<g>
	<g>
		<path d="M172.1,127.05h-82c-13.6,0-24.6,11-24.6,24.6v81.9c0,13.6,11,24.6,24.6,24.6H172c13.6,0,24.6-11,24.6-24.6v-81.9    C196.6,138.05,185.6,127.05,172.1,127.05z M172.1,241.75h-82c-4.5,0-8.2-3.7-8.2-8.2v-81.9c0-4.5,3.7-8.2,8.2-8.2H172    c4.5,0,8.2,3.7,8.2,8.2v81.9h0.1C180.3,238.05,176.6,241.75,172.1,241.75z" fill="#fe0000"/>
	</g>
</g>
<g>
	<g>
		<path d="M352.3,127.05h-81.9c-13.6,0-24.6,11-24.6,24.6v81.9c0,13.6,11,24.6,24.6,24.6h81.9c13.6,0,24.6-11,24.6-24.6v-81.9    C376.9,138.05,365.9,127.05,352.3,127.05z M360.5,233.55c0,4.5-3.7,8.2-8.2,8.2h-81.9c-4.5,0-8.2-3.7-8.2-8.2v-81.9    c0-4.5,3.7-8.2,8.2-8.2h81.9c4.5,0,8.2,3.7,8.2,8.2V233.55z" fill="#fe0000"/>
	</g>
</g>
<g>
	<g>
		<path d="M442.5,299.15v-172.1c0-31.6-25.7-57.4-57.4-57.4H57.4c-31.7,0-57.4,25.8-57.4,57.4v196.6c0,29,21.7,53,49.6,56.8    c3.8,32.6,31.5,57.9,65.1,57.9c33.4,0,60.9-25.1,65-57.4h205.4c31.6,0,57.4-25.7,57.4-57.4v-8.2H508v-16.2H442.5z M163.9,372.95    c-0.1,27.1-22.1,49.1-49.2,49.1c-27.1,0-49.2-22.1-49.2-49.2c0-27.1,22.1-49.2,49.2-49.2c27.1,0,49.1,22,49.2,49.1V372.95z     M385.1,364.65H179.7c-4.1-32.3-31.6-57.4-65-57.4c-33.1,0-60.5,24.7-64.9,56.6c-19-3.5-33.5-20.2-33.5-40.2v-196.6    c0-22.6,18.4-41,41-41H385c22.6,0,41,18.4,41,41v196.6h0.1C426.1,346.25,407.7,364.65,385.1,364.65z" fill="#fe0000"/>
	</g>
</g>
<g>
</g>
<g>
</g>
<g>
</g>
<g>
</g>
<g>
</g>
<g>
</g>
<g>
</g>
<g>
</g>
<g>
</g>
<g>
</g>
<g>
</g>
<g>
</g>
<g>
</g>
<g>
</g>
<g>
</g>
</svg>
