<?xml version="1.0" encoding="iso-8859-1"?>
<!-- Generator: Adobe Illustrator 19.0.0, SVG Export Plug-In . SVG Version: 6.00 Build 0)  -->
<svg xmlns="http://www.w3.org/2000/svg" xmlns:xlink="http://www.w3.org/1999/xlink" version="1.1" id="Capa_1" x="0px" y="0px" viewBox="0 0 508 508" style="enable-background:new 0 0 508 508;" xml:space="preserve" width="512px" height="512px">
<g>
	<g>
		<path d="M247.9,178.199c-19.2-19.2-50.4-19.2-69.5,0c-20.3,20.3-18.3,51.3,0,69.5c21,21.1,51.5,18,69.5,0    C264.5,231.099,269.6,199.799,247.9,178.199z M236.3,236.199c-12.8,12.8-33.6,12.8-46.4,0c-12.7-12.8-12.7-33.6,0-46.4    c14.6-14.6,35.3-11,46.4,0C249.1,202.599,249.1,223.399,236.3,236.199z" fill="#fe0002"/>
	</g>
</g>
<g>
	<g>
		<path d="M423.6,246.499c10.7-67.5-11.1-135.5-59.8-184.2c-90.2-90.3-225.8-75.5-301.4,0c-40.2,40.2-62.4,93.7-62.4,150.7    c0,166,176.2,261.3,311.5,189v34.5c-8.7-6.5-20.2-10.5-32.8-10.5c-27.1,0-49.2,18.4-49.2,41c0,22.6,22.1,41,49.2,41    c27.1,0,49.2-18.4,49.2-41v-116.4l163.7-37.2v74c-8.7-6.5-20.2-10.5-32.8-10.5c-27.1,0-49.2,18.4-49.2,41c0,22.6,22.1,41,49.2,41    c27.1,0,49.2-18.4,49.2-41v-190.6L423.6,246.499z M278.7,491.599c-18.1,0-32.8-11-32.8-24.6c0-13.6,14.7-24.6,32.8-24.6    c18.1,0,32.8,11,32.8,24.6C311.5,480.599,296.8,491.599,278.7,491.599z M352.2,73.899c14.3,14.2,26,30.3,35.1,47.6l-87.6,44.8    c-4.4-8.2-10-15.9-17-22.8c-6.9-6.9-14.6-12.5-22.8-17l44.7-87.7C321.9,47.899,338,59.699,352.2,73.899z M271.1,270.899    c-32,32-84,32-115.9,0c-32-32-32-84,0-115.9c36.5-36.5,88.4-27.5,115.9,0C303.1,186.999,303.1,238.999,271.1,270.899z     M16.4,212.999c0-52.6,20.5-102,57.6-139.1c82.5-82.5,190.7-56,215.7-42.2l-45,88.2c-34.3-11.6-73.8-3.9-101.2,23.5    c-27.5,27.5-35.2,67.4-23.2,101.9l-88.2,45C21.9,266.199,16.4,239.999,16.4,212.999z M39.3,305.199l87.7-44.8    c4.4,7.9,9.8,15.4,16.5,22.1c6.8,6.8,14.5,12.4,22.5,16.8l-44.7,87.6C84,364.799,62.4,345.399,39.3,305.199z M311.5,271.999v111.2    c-54.8,31.7-119.6,34.5-175.3,10.8l44.9-88.1c16.1,5.4,62.9,15.3,101.5-23.3c27.3-27.3,35.1-66.8,23.5-101.2l88.2-45.1    c15,35.5,19.4,75,11.8,114.2L311.5,271.999z M491.6,296.599l-163.7,37.2v-48.8l163.7-37.2V296.599z M458.8,442.399    c-18.1,0-32.8-11-32.8-24.6c0-13.6,14.7-24.6,32.8-24.6c18.1,0,32.8,11,32.8,24.6C491.6,431.399,476.9,442.399,458.8,442.399z" fill="#fe0002"/>
	</g>
</g>
<g>
</g>
<g>
</g>
<g>
</g>
<g>
</g>
<g>
</g>
<g>
</g>
<g>
</g>
<g>
</g>
<g>
</g>
<g>
</g>
<g>
</g>
<g>
</g>
<g>
</g>
<g>
</g>
<g>
</g>
</svg>
