<?xml version="1.0" encoding="iso-8859-1"?>
<!-- Generator: Adobe Illustrator 19.0.0, SVG Export Plug-In . SVG Version: 6.00 Build 0)  -->
<svg xmlns="http://www.w3.org/2000/svg" xmlns:xlink="http://www.w3.org/1999/xlink" version="1.1" id="Layer_1" x="0px" y="0px" viewBox="0 0 512 512" style="enable-background:new 0 0 512 512;" xml:space="preserve" width="512px" height="512px">
<g>
	<g>
		<path d="M253.5,258.492c-3.337-3.336-8.73-3.328-12.066,0.009L57.446,442.487c-0.794,0.794-1.886,1.246-3.012,1.246H4.267    C1.911,443.733,0,445.645,0,448v59.733C0,510.089,1.911,512,4.267,512H64c2.355,0,4.267-1.911,4.267-4.267v-50.167    c0-1.135,0.452-2.219,1.246-3.021L253.5,270.558C256.836,267.221,256.836,261.828,253.5,258.492z" fill="#fe0000"/>
	</g>
</g>
<g>
	<g>
		<path d="M355.9,156.1c-3.337-3.337-8.73-3.337-12.066,0l-68.267,68.267c-3.337,3.337-3.337,8.73,0,12.066    c1.664,1.664,3.849,2.5,6.033,2.5c2.185,0,4.369-0.836,6.033-2.5l68.267-68.267C359.236,164.83,359.236,159.437,355.9,156.1z" fill="#fe0000"/>
	</g>
</g>
<g>
	<g>
		<path d="M507.733,0H448c-2.355,0-4.267,1.911-4.267,4.267v50.167c0,1.135-0.452,2.219-1.246,3.021l-64.521,64.521    c-3.336,3.337-3.336,8.73,0,12.066c1.664,1.655,3.849,2.492,6.033,2.492c2.185,0,4.369-0.836,6.033-2.5l64.521-64.521    c0.794-0.794,1.886-1.246,3.012-1.246h50.167c2.355,0,4.267-1.911,4.267-4.267V4.267C512,1.911,510.089,0,507.733,0z" fill="#fe0000"/>
	</g>
</g>
<g>
</g>
<g>
</g>
<g>
</g>
<g>
</g>
<g>
</g>
<g>
</g>
<g>
</g>
<g>
</g>
<g>
</g>
<g>
</g>
<g>
</g>
<g>
</g>
<g>
</g>
<g>
</g>
<g>
</g>
</svg>
