<?xml version="1.0" encoding="iso-8859-1"?>
<!-- Generator: Adobe Illustrator 19.0.0, SVG Export Plug-In . SVG Version: 6.00 Build 0)  -->
<svg xmlns="http://www.w3.org/2000/svg" xmlns:xlink="http://www.w3.org/1999/xlink" version="1.1" id="Capa_1" x="0px" y="0px" viewBox="0 0 512 512" style="enable-background:new 0 0 512 512;" xml:space="preserve" width="512px" height="512px">
<g>
	<g>
		<path d="M333.165,0h-28.833c-69.526,0-126.918,52.931-134.006,120.612c-54.051,6.555-96.923,49.873-102.792,104.129H44.089v83.393    h280.994v-83.393h-23.445c-5.809-53.697-47.863-96.679-101.126-103.913C207.341,69.626,251.294,30,304.332,30h28.833    c57.757,0,104.746,46.989,104.746,104.746V512h30V134.746C467.911,60.447,407.464,0,333.165,0z M295.083,278.134H74.089v-23.393    h220.994V278.134z M271.407,224.741H97.765c6.192-42.362,42.768-74.995,86.821-74.995    C228.64,149.746,265.215,182.378,271.407,224.741z" fill="#fe0000"/>
	</g>
</g>
<g>
	<g>
		<rect x="74.841" y="339.1" width="30" height="34.07" fill="#fe0000"/>
	</g>
</g>
<g>
	<g>
		<rect x="74.841" y="403.1" width="30" height="34.07" fill="#fe0000"/>
	</g>
</g>
<g>
	<g>
		<rect x="74.841" y="467.1" width="30" height="34.07" fill="#fe0000"/>
	</g>
</g>
<g>
	<g>
		<rect x="137.91" y="339.1" width="30" height="34.07" fill="#fe0000"/>
	</g>
</g>
<g>
	<g>
		<rect x="137.91" y="403.1" width="30" height="34.07" fill="#fe0000"/>
	</g>
</g>
<g>
	<g>
		<rect x="137.91" y="467.1" width="30" height="34.07" fill="#fe0000"/>
	</g>
</g>
<g>
	<g>
		<rect x="200.98" y="339.1" width="30" height="34.07" fill="#fe0000"/>
	</g>
</g>
<g>
	<g>
		<rect x="200.98" y="403.1" width="30" height="34.07" fill="#fe0000"/>
	</g>
</g>
<g>
	<g>
		<rect x="200.98" y="467.1" width="30" height="34.07" fill="#fe0000"/>
	</g>
</g>
<g>
	<g>
		<rect x="264.05" y="339.1" width="30" height="34.07" fill="#fe0000"/>
	</g>
</g>
<g>
	<g>
		<rect x="264.05" y="403.1" width="30" height="34.07" fill="#fe0000"/>
	</g>
</g>
<g>
	<g>
		<rect x="264.05" y="467.1" width="30" height="34.07" fill="#fe0000"/>
	</g>
</g>
<g>
</g>
<g>
</g>
<g>
</g>
<g>
</g>
<g>
</g>
<g>
</g>
<g>
</g>
<g>
</g>
<g>
</g>
<g>
</g>
<g>
</g>
<g>
</g>
<g>
</g>
<g>
</g>
<g>
</g>
</svg>
