<?xml version="1.0" encoding="iso-8859-1"?>
<!-- Generator: Adobe Illustrator 19.0.0, SVG Export Plug-In . SVG Version: 6.00 Build 0)  -->
<svg xmlns="http://www.w3.org/2000/svg" xmlns:xlink="http://www.w3.org/1999/xlink" version="1.1" id="Capa_1" x="0px" y="0px" viewBox="0 0 508 508" style="enable-background:new 0 0 508 508;" xml:space="preserve" width="512px" height="512px">
<g>
	<g>
		<path d="M270.4,0v360.5h106.5v70.1l-71,63.1l10.9,12.3l60.1-53.4V508h16.4v-55.5l60.1,53.4l10.9-12.3l-71-63.1v-70.1h106.5V0    H270.4z M483.4,344.1H286.8V16.4h196.6V344.1z" fill="#fe0000"/>
	</g>
</g>
<g>
	<g>
		<path d="M385.1,147.5c-45.2,0-81.9,36.8-81.9,81.9c0,45.2,36.8,81.9,81.9,81.9c45.2,0,81.9-36.8,81.9-81.9    C467,184.2,430.3,147.5,385.1,147.5z M385.1,295c-36.1,0-65.5-29.4-65.5-65.5c0-36.1,29.4-65.5,65.5-65.5    c36.1,0,65.5,29.4,65.5,65.5C450.6,265.6,421.2,295,385.1,295z" fill="#fe0000"/>
	</g>
</g>
<g>
	<g>
		<path d="M385.1,180.3c-27.1,0-49.2,22.1-49.2,49.2s22.1,49.2,49.2,49.2c27.1,0,49.2-22.1,49.2-49.2S412.2,180.3,385.1,180.3z     M385.1,262.2c-18.1,0-32.8-14.7-32.8-32.8c0-18.1,14.7-32.8,32.8-32.8s32.8,14.7,32.8,32.8C417.9,247.5,403.2,262.2,385.1,262.2z    " fill="#fe0000"/>
	</g>
</g>
<g>
	<g>
		<path d="M385.1,32.7c-27.1,0-49.2,22.1-49.2,49.2c0,27.1,22.1,49.2,49.2,49.2c27.1,0,49.2-22.1,49.2-49.2    C434.3,54.8,412.2,32.7,385.1,32.7z M385.1,114.8c-18.1,0-32.8-14.7-32.8-32.8c0-18.1,14.7-32.8,32.8-32.8    c18.1,0,32.8,14.7,32.8,32.8S403.2,114.8,385.1,114.8z" fill="#fe0000"/>
	</g>
</g>
<g>
	<g>
		<rect x="303.2" y="32.8" width="16.4" height="16.4" fill="#fe0000"/>
	</g>
</g>
<g>
	<g>
		<rect x="450.6" y="32.8" width="16.4" height="16.4" fill="#fe0000"/>
	</g>
</g>
<g>
	<g>
		<rect x="303.2" y="311.4" width="16.4" height="16.4" fill="#fe0000"/>
	</g>
</g>
<g>
	<g>
		<rect x="450.6" y="311.4" width="16.4" height="16.4" fill="#fe0000"/>
	</g>
</g>
<g>
	<g>
		<path d="M237.6,360.4V0H8.2v360.5h106.5v70.1l-71,63.1L54.6,506l60.1-53.4V508h16.4v-55.5l60.1,53.4l10.9-12.3l-71-63.1v-70.1    H237.6z M24.6,344.1V16.4h196.6v327.7H24.6z" fill="#fe0000"/>
	</g>
</g>
<g>
	<g>
		<path d="M122.9,147.5c-45.2,0-81.9,36.8-81.9,81.9c0,45.2,36.8,81.9,81.9,81.9c45.2,0,81.9-36.8,81.9-81.9    C204.8,184.2,168.1,147.5,122.9,147.5z M122.9,295c-36.1,0-65.5-29.4-65.5-65.5c0-36.1,29.4-65.5,65.5-65.5    c36.1,0,65.5,29.4,65.5,65.5C188.5,265.6,159,295,122.9,295z" fill="#fe0000"/>
	</g>
</g>
<g>
	<g>
		<path d="M122.9,180.3c-27.1,0-49.2,22.1-49.2,49.2s22.1,49.2,49.2,49.2c27.1,0,49.2-22.1,49.2-49.2S150,180.3,122.9,180.3z     M122.9,262.2c-18.1,0-32.8-14.7-32.8-32.8c0-18.1,14.7-32.8,32.8-32.8c18.1,0,32.8,14.7,32.8,32.8    C155.7,247.5,141,262.2,122.9,262.2z" fill="#fe0000"/>
	</g>
</g>
<g>
	<g>
		<path d="M122.9,32.8c-27.1,0-49.2,22-49.2,49.1c0,27.1,22.1,49.2,49.2,49.2c27.1,0,49.2-22.1,49.2-49.2    C172.1,54.8,150,32.8,122.9,32.8z M122.9,114.8c-18.1,0-32.8-14.7-32.8-32.8s14.7-32.8,32.8-32.8c18.1,0,32.8,14.7,32.8,32.8    S141,114.8,122.9,114.8z" fill="#fe0000"/>
	</g>
</g>
<g>
	<g>
		<rect x="41" y="32.8" width="16.4" height="16.4" fill="#fe0000"/>
	</g>
</g>
<g>
	<g>
		<rect x="188.5" y="32.8" width="16.4" height="16.4" fill="#fe0000"/>
	</g>
</g>
<g>
	<g>
		<rect x="41" y="311.4" width="16.4" height="16.4" fill="#fe0000"/>
	</g>
</g>
<g>
	<g>
		<rect x="188.5" y="311.4" width="16.4" height="16.4" fill="#fe0000"/>
	</g>
</g>
<g>
</g>
<g>
</g>
<g>
</g>
<g>
</g>
<g>
</g>
<g>
</g>
<g>
</g>
<g>
</g>
<g>
</g>
<g>
</g>
<g>
</g>
<g>
</g>
<g>
</g>
<g>
</g>
<g>
</g>
</svg>
