<?xml version="1.0" encoding="iso-8859-1"?>
<!-- Generator: Adobe Illustrator 19.0.0, SVG Export Plug-In . SVG Version: 6.00 Build 0)  -->
<svg xmlns="http://www.w3.org/2000/svg" xmlns:xlink="http://www.w3.org/1999/xlink" version="1.1" id="Layer_1" x="0px" y="0px" viewBox="0 0 511.998 511.998" style="enable-background:new 0 0 511.998 511.998;" xml:space="preserve" width="512px" height="512px">
<g>
	<g>
		<path d="M511.437,263.296h0.016l-20.797-62.359v-51.602c0,0-61.75-64-245.32-64c-183.578,0-245.336,64-245.336,64v266.656    c0,5.906,4.773,10.672,10.664,10.672h106.672h277.32h85.343c5.891,0,10.656-4.766,10.656-10.672V268.397l0.484,1.43    c0.016,0.016,0.016,0.023,0.016,0.039l0.062,0.172c1.406,4.234,5.406,7.297,10.125,7.297c5.875,0,10.656-4.781,10.656-10.672    C511.999,265.483,511.796,264.358,511.437,263.296z M383.999,404.711c-0.469,0.203-0.938,0.406-1.391,0.625H117.335v-0.001    c-4.555,0-8.039-0.156-10.672-0.359v-74.312h86.406c4.938,24.344,26.461,42.672,52.266,42.672    c25.797,0,47.32-18.328,52.258-42.672h86.406V404.711z M245.335,330.663c5.891,0,10.664-4.766,10.664-10.672v-30.156    c12.414,4.406,21.344,16.25,21.344,30.156c0,17.656-14.367,32-32.008,32c-17.648,0-32-14.344-32-32    c0-13.906,8.914-25.75,21.328-30.156v30.156C234.663,325.897,239.444,330.663,245.335,330.663z M383.999,309.335h-86.406    c-4.938-24.344-26.461-42.672-52.258-42.672c-25.805,0-47.328,18.328-52.266,42.672h-86.406v-74.672h277.336V309.335z     M405.343,405.335V223.999c0-5.891-4.781-10.664-10.688-10.664H95.999c-5.891,0-10.664,4.773-10.664,10.664v181.336h-64V159.28    c7.312-5.445,21.461-14.555,44.008-23.617c20.891-8.391,44.766-15.078,70.969-19.891c32.922-6.047,69.602-9.109,109.023-9.109    c39.414,0,76.102,3.062,109.023,9.109c26.203,4.812,50.078,11.5,70.953,19.891c22.562,9.062,36.703,18.172,44.031,23.617v246.055    H405.343z" fill="#fe0000"/>
	</g>
</g>
<g>
</g>
<g>
</g>
<g>
</g>
<g>
</g>
<g>
</g>
<g>
</g>
<g>
</g>
<g>
</g>
<g>
</g>
<g>
</g>
<g>
</g>
<g>
</g>
<g>
</g>
<g>
</g>
<g>
</g>
</svg>
