<?xml version="1.0" encoding="iso-8859-1"?>
<!-- Generator: Adobe Illustrator 19.0.0, SVG Export Plug-In . SVG Version: 6.00 Build 0)  -->
<svg xmlns="http://www.w3.org/2000/svg" xmlns:xlink="http://www.w3.org/1999/xlink" version="1.1" id="Capa_1" x="0px" y="0px" viewBox="0 0 508 508" style="enable-background:new 0 0 508 508;" xml:space="preserve" width="512px" height="512px">
<g>
	<g>
		<path d="M377,426.1V213H262.2v-33.2c45.9-4.2,81.9-42.8,81.9-89.7C344.1,40.4,303.7,0,254,0s-90.1,40.4-90.1,90.1    c0,46.9,36.1,85.6,81.9,89.7V213H131.1v213H65.5v65.5h32.8V508h16.4v-16.4h278.6V508h16.4v-16.4h32.8v-65.5H377z M180.7,98.3h15.9    V81.9h-15.9c1.6-14.2,7.2-27.2,15.7-37.8l11.2,11.2l11.6-11.6L208,32.6c10.6-8.5,23.6-14.1,37.8-15.7v15.9h16.4V16.9    c14.2,1.6,27.2,7.2,37.8,15.7l-11.2,11.2l11.6,11.6l11.2-11.2c8.5,10.6,14.1,23.6,15.7,37.8h-15.9v16.4h15.9    c-4.1,36.8-35.4,65.5-73.3,65.5S184.8,135.1,180.7,98.3z M229.4,229.4h49.2v49.2h-49.2V229.4z M147.5,229.4H213V295h82v-65.5h65.5    v196.6h-213V229.4z M426.1,475.2H81.9v-32.8h49.2h245.8h49.2V475.2z" fill="#fe0000"/>
	</g>
</g>
<g>
	<g>
		<rect x="248.848" y="69.682" transform="matrix(0.7071 -0.7071 0.7071 0.7071 22.9111 211.0767)" width="34.8" height="16.4" fill="#fe0000"/>
	</g>
</g>
<g>
</g>
<g>
</g>
<g>
</g>
<g>
</g>
<g>
</g>
<g>
</g>
<g>
</g>
<g>
</g>
<g>
</g>
<g>
</g>
<g>
</g>
<g>
</g>
<g>
</g>
<g>
</g>
<g>
</g>
</svg>
